<?xml version="1.0" encoding="UTF-8" standalone="no"?>
<svg
   xmlns:dc="http://purl.org/dc/elements/1.1/"
   xmlns:cc="http://creativecommons.org/ns#"
   xmlns:rdf="http://www.w3.org/1999/02/22-rdf-syntax-ns#"
   xmlns:svg="http://www.w3.org/2000/svg"
   xmlns="http://www.w3.org/2000/svg"
   xmlns:sodipodi="http://sodipodi.sourceforge.net/DTD/sodipodi-0.dtd"
   xmlns:inkscape="http://www.inkscape.org/namespaces/inkscape"
   version="1.1"
   x="0px"
   y="0px"
   viewBox="0 0 100 100"
   enable-background="new 0 0 100 100"
   xml:space="preserve"
   id="svg30"
   sodipodi:docname="logo.svg"
   width="100"
   height="100"
   inkscape:version="0.92.1 r15371"
   inkscape:export-filename="D:\Downloads\48.png"
   inkscape:export-xdpi="46.080002"
   inkscape:export-ydpi="46.080002"><metadata
     id="metadata36"><rdf:RDF><cc:Work
         rdf:about=""><dc:format>image/svg+xml</dc:format><dc:type
           rdf:resource="http://purl.org/dc/dcmitype/StillImage" /><dc:title></dc:title></cc:Work></rdf:RDF></metadata><defs
     id="defs34" /><sodipodi:namedview
     pagecolor="#ffffff"
     bordercolor="#666666"
     borderopacity="1"
     objecttolerance="10"
     gridtolerance="10"
     guidetolerance="10"
     inkscape:pageopacity="0"
     inkscape:pageshadow="2"
     inkscape:window-width="1920"
     inkscape:window-height="1017"
     id="namedview32"
     showgrid="false"
     inkscape:zoom="3.776"
     inkscape:cx="38.273263"
     inkscape:cy="38.160872"
     inkscape:window-x="-8"
     inkscape:window-y="-8"
     inkscape:window-maximized="1"
     inkscape:current-layer="svg30" /><g
     id="g24"
     style="fill:#406e8e;fill-opacity:1;stroke:#406e8e;stroke-opacity:1;stroke-width:2;stroke-miterlimit:4;stroke-dasharray:none"><circle
       stroke-miterlimit="10"
       cx="31.625"
       cy="25.25"
       r="7.375"
       id="circle2"
       style="fill:#406e8e;stroke:#406e8e;stroke-width:2;stroke-miterlimit:4;fill-opacity:1;stroke-opacity:1;stroke-dasharray:none" /><path
       stroke-miterlimit="10"
       d="m 37.75,43.425 v 5.37 H 26.5 c 1.05,-4.52 3.59,-11.17 5.88,-11.17 1.48,0 2.82,0.65 3.8,1.7 0.97,1.05 1.57,2.5 1.57,4.1 z"
       id="path4"
       inkscape:connector-curvature="0"
       style="fill:#406e8e;stroke:#406e8e;stroke-width:2;stroke-linejoin:round;stroke-miterlimit:4;fill-opacity:1;stroke-opacity:1;stroke-dasharray:none" /><path
       stroke-miterlimit="10"
       d="m 26.17,56.125 h 11.58 v 20.2 c 0,3.2 -2.41,5.8 -5.37,5.8 -1.48,0 -2.83,-0.65 -3.8,-1.7 -0.98,-1.05 -1.58,-2.5 -1.58,-4.1 z"
       id="path6"
       inkscape:connector-curvature="0"
       style="fill:#406e8e;stroke:#406e8e;stroke-width:2;stroke-linejoin:round;stroke-miterlimit:4;fill-opacity:1;stroke-opacity:1;stroke-dasharray:none" /><circle
       stroke-miterlimit="10"
       cx="55.625"
       cy="25.25"
       r="7.375"
       id="circle8"
       style="fill:#406e8e;stroke:#406e8e;stroke-width:2;stroke-miterlimit:4;fill-opacity:1;stroke-opacity:1;stroke-dasharray:none" /><path
       stroke-miterlimit="10"
       d="m 61.75,43.425 v 5.37 H 50.5 c 1.05,-4.52 3.59,-11.17 5.88,-11.17 1.48,0 2.82,0.65 3.8,1.7 0.97,1.05 1.57,2.5 1.57,4.1 z"
       id="path10"
       inkscape:connector-curvature="0"
       style="fill:#406e8e;stroke:#406e8e;stroke-width:2;stroke-linejoin:round;stroke-miterlimit:4;fill-opacity:1;stroke-opacity:1;stroke-dasharray:none" /><path
       stroke-miterlimit="10"
       d="m 50.17,56.125 h 11.58 v 20.2 c 0,3.2 -2.41,5.8 -5.37,5.8 -1.48,0 -2.83,-0.65 -3.8,-1.7 -0.98,-1.05 -1.58,-2.5 -1.58,-4.1 z"
       id="path12"
       inkscape:connector-curvature="0"
       style="fill:#406e8e;stroke:#406e8e;stroke-width:2;stroke-linejoin:round;stroke-miterlimit:4;fill-opacity:1;stroke-opacity:1;stroke-dasharray:none" /><circle
       stroke-miterlimit="10"
       cx="79.625"
       cy="25.25"
       r="7.375"
       id="circle14"
       style="fill:#406e8e;stroke:#406e8e;stroke-width:2;stroke-miterlimit:4;fill-opacity:1;stroke-opacity:1;stroke-dasharray:none" /><path
       stroke-miterlimit="10"
       d="m 85.75,43.425 v 5.37 H 74.5 c 1.05,-4.52 3.59,-11.17 5.88,-11.17 1.48,0 2.82,0.65 3.8,1.7 0.97,1.05 1.57,2.5 1.57,4.1 z"
       id="path16"
       inkscape:connector-curvature="0"
       style="fill:#406e8e;stroke:#406e8e;stroke-width:2;stroke-linejoin:round;stroke-miterlimit:4;fill-opacity:1;stroke-opacity:1;stroke-dasharray:none" /><path
       stroke-miterlimit="10"
       d="m 74.17,56.125 h 11.58 v 20.2 c 0,3.2 -2.41,5.8 -5.37,5.8 -1.48,0 -2.83,-0.65 -3.8,-1.7 -0.98,-1.05 -1.58,-2.5 -1.58,-4.1 z"
       id="path18"
       inkscape:connector-curvature="0"
       style="fill:#406e8e;stroke:#406e8e;stroke-width:2;stroke-linejoin:round;stroke-miterlimit:4;fill-opacity:1;stroke-opacity:1;stroke-dasharray:none" /><rect
       x="7.5"
       y="37.625"
       stroke-miterlimit="10"
       width="9.25"
       height="44.5"
       id="rect20"
       style="fill:#406e8e;stroke:#406e8e;stroke-width:2;stroke-linejoin:round;stroke-miterlimit:4;fill-opacity:1;stroke-opacity:1;stroke-dasharray:none" /><rect
       x="16.75"
       y="48.794998"
       stroke-miterlimit="10"
       width="75.75"
       height="7.3299999"
       id="rect22"
       style="fill:#406e8e;stroke:#406e8e;stroke-width:2;stroke-linejoin:round;stroke-miterlimit:4;fill-opacity:1;stroke-opacity:1;stroke-dasharray:none" /></g></svg>