<?xml version="1.0" encoding="UTF-8" standalone="no"?>
<svg
   xmlns:dc="http://purl.org/dc/elements/1.1/"
   xmlns:cc="http://creativecommons.org/ns#"
   xmlns:rdf="http://www.w3.org/1999/02/22-rdf-syntax-ns#"
   xmlns:svg="http://www.w3.org/2000/svg"
   xmlns="http://www.w3.org/2000/svg"
   xmlns:xlink="http://www.w3.org/1999/xlink"
   xmlns:sodipodi="http://sodipodi.sourceforge.net/DTD/sodipodi-0.dtd"
   xmlns:inkscape="http://www.inkscape.org/namespaces/inkscape"
   width="300"
   height="181.132"
   version="1.0"
   viewBox="0 0 7937.5919 4792.1115"
   id="svg44"
   sodipodi:docname="bg3.svg"
   style="clip-rule:evenodd;fill-rule:evenodd;image-rendering:optimizeQuality;shape-rendering:geometricPrecision;text-rendering:geometricPrecision"
   inkscape:version="0.92.1 r15371">
  <metadata
     id="metadata48">
    <rdf:RDF>
      <cc:Work
         rdf:about="">
        <dc:format>image/svg+xml</dc:format>
        <dc:type
           rdf:resource="http://purl.org/dc/dcmitype/StillImage" />
        <dc:title></dc:title>
      </cc:Work>
    </rdf:RDF>
  </metadata>
  <sodipodi:namedview
     pagecolor="#ffffff"
     bordercolor="#666666"
     borderopacity="1"
     objecttolerance="10"
     gridtolerance="10"
     guidetolerance="10"
     inkscape:pageopacity="0"
     inkscape:pageshadow="2"
     inkscape:window-width="1920"
     inkscape:window-height="1017"
     id="namedview46"
     showgrid="false"
     units="px"
     inkscape:zoom="1.0925251"
     inkscape:cx="163.84063"
     inkscape:cy="79.99937"
     inkscape:window-x="-8"
     inkscape:window-y="-8"
     inkscape:window-maximized="1"
     inkscape:current-layer="svg44" />
  <defs
     id="defs20">
    <style
       type="text/css"
       id="style2">.fil9 {fill:none} .fil7 {fill:url(#a)} .fil3 {fill:url(#i)} .fil0 {fill:url(#h)} .fil8 {fill:url(#g)} .fil4 {fill:url(#f)} .fil1 {fill:url(#e)} .fil6 {fill:url(#d)} .fil5 {fill:url(#c)} .fil2 {fill:url(#b)}</style>
    <clipPath
       id="j">
      <path
         d="M 1410,-519 H 8141 V 3545 H 1410 Z"
         id="path4"
         inkscape:connector-curvature="0" />
    </clipPath>
    <linearGradient
       id="a"
       x1="2763.7"
       x2="1419.5"
       y1="-12.55"
       y2="4655.3999"
       gradientUnits="userSpaceOnUse">
      <stop
         stop-color="#004AAB"
         offset="0"
         id="stop7" />
      <stop
         stop-color="#9ff"
         offset="1"
         id="stop9" />
    </linearGradient>
    <linearGradient
       id="i"
       x1="5067.8999"
       x2="9532.0996"
       y1="1084.3"
       y2="672.38"
       gradientUnits="userSpaceOnUse"
       xlink:href="#a" />
    <linearGradient
       id="h"
       x1="6173.5"
       x2="10638"
       y1="929.98999"
       y2="518.10999"
       gradientUnits="userSpaceOnUse"
       xlink:href="#a" />
    <linearGradient
       id="g"
       x1="1683.2"
       x2="4162.2998"
       y1="4553.2002"
       y2="1043.5"
       gradientUnits="userSpaceOnUse"
       xlink:href="#a" />
    <linearGradient
       id="f"
       x1="6967.7002"
       x2="4079.7"
       y1="-562.69"
       y2="3408.8"
       gradientUnits="userSpaceOnUse"
       xlink:href="#a" />
    <linearGradient
       id="e"
       x1="8073.2998"
       x2="5185.2998"
       y1="-716.96002"
       y2="3254.6001"
       gradientUnits="userSpaceOnUse"
       xlink:href="#a" />
    <linearGradient
       id="d"
       x1="1512.1"
       x2="5638.6001"
       y1="2175.2"
       y2="230.8"
       gradientUnits="userSpaceOnUse"
       xlink:href="#a" />
    <linearGradient
       id="c"
       x1="4432.8999"
       x2="7851.2002"
       y1="3343.2"
       y2="966.97998"
       gradientUnits="userSpaceOnUse"
       xlink:href="#a" />
    <linearGradient
       id="b"
       x1="5538.5"
       x2="8956.7998"
       y1="3188.8999"
       y2="812.71997"
       gradientUnits="userSpaceOnUse"
       xlink:href="#a" />
    <linearGradient
       inkscape:collect="always"
       xlink:href="#a"
       id="linearGradient4526"
       gradientUnits="userSpaceOnUse"
       x1="2763.7"
       y1="-12.55"
       x2="1419.5"
       y2="4655.3999" />
  </defs>
  <g
     clip-path="url(#j)"
     id="g40"
     transform="matrix(1.1792589,0,0,1.1792589,-1662.7551,611.85935)">
    <path
       class="fil0"
       d="m 9371,-2899 c -184,-262 -321,2094 452,5499 517,2276 3243,3117 3032,2915 211,202 190,442 79,574 -119,141 -356,182 -573,-67 C 12578,6271 10703,4877 8907,3384 7117,1897 5449,253 5920,188 c -471,65 0,-1115 990,-1988 965,-850 2277,-1361 2461,-1099 z"
       id="path22"
       style="fill:url(#h)"
       inkscape:connector-curvature="0" />
    <path
       class="fil1"
       d="m 6584,-2428 c -272,-165 414,1853 2286,4819 1221,1934 3924,2206 3671,2040 253,166 306,414 242,577 -69,174 -282,288 -564,114 282,174 -1931,-566 -4107,-1412 C 5943,2866 3837,1839 4266,1624 3837,1839 3911,570 4576,-573 5224,-1686 6312,-2593 6584,-2428 Z"
       id="path24"
       style="fill:url(#e)"
       inkscape:connector-curvature="0" />
    <path
       class="fil2"
       d="m 5243,-2058 c -263,-231 1010,2802 3025,4480 1846,1539 4022,2549 3739,2411 283,138 362,357 301,515 -65,167 -280,274 -563,110 C 12028,5622 9828,4847 7647,4026 5464,3204 3358,2178 3772,1992 c -414,186 -189,-915 219,-2036 407,-1123 989,-2245 1252,-2014 z"
       id="path26"
       style="fill:url(#b)"
       inkscape:connector-curvature="0" />
    <path
       class="fil3"
       d="m 8266,-2745 c -184,-262 -321,2094 452,5499 516,2276 3243,3118 3032,2915 211,203 189,443 78,574 -119,141 -356,182 -573,-67 C 11472,6425 9598,5031 7801,3539 6012,2052 4344,407 4814,342 c -470,65 1,-1115 991,-1987 965,-851 2277,-1362 2461,-1100 z"
       id="path28"
       style="fill:url(#i)"
       inkscape:connector-curvature="0" />
    <path
       class="fil4"
       d="m 5479,-2273 c -273,-165 414,1852 2286,4818 1221,1935 3923,2206 3671,2040 252,166 305,415 241,577 -69,175 -282,289 -564,114 C 11395,5451 9183,4710 7007,3864 4837,3020 2732,1993 3160,1779 2732,1993 2806,724 3471,-419 4119,-1531 5206,-2438 5479,-2273 Z"
       id="path30"
       style="fill:url(#f)"
       inkscape:connector-curvature="0" />
    <path
       class="fil5"
       d="m 4138,-1904 c -264,-231 1010,2802 3024,4480 1847,1539 4022,2549 3740,2412 282,137 361,356 300,515 -64,166 -280,274 -563,109 C 10922,5777 8723,5001 6541,4180 4359,3359 2252,2333 2667,2146 c -415,187 -189,-914 218,-2036 408,-1122 989,-2245 1253,-2014 z"
       id="path32"
       style="fill:url(#c)"
       inkscape:connector-curvature="0" />
    <path
       class="fil6"
       d="m 3246,-2532 c -262,-184 413,2077 2302,5014 1262,1964 4113,1824 3845,1705 268,119 329,351 270,513 -64,173 -273,292 -561,132 C 9390,4992 7153,4322 4955,3532 2765,2746 636,1769 1056,1547 636,1769 676,499 1308,-659 1925,-1787 2984,-2716 3246,-2532 Z"
       id="path34"
       style="fill:url(#d)"
       inkscape:connector-curvature="0" />
    <path
       class="fil7"
       d="m 788,-1138 c -313,-62 1021,1600 3793,3749 1808,1402 4441,734 4147,664 294,70 429,286 424,461 -5,187 -167,367 -491,299 324,68 -2008,127 -4342,74 C 1992,4057 -338,3810 -9,3462 -338,3810 -702,2592 -467,1291 -237,24 475,-1200 788,-1138 Z"
       id="path36"
       style="fill:url(#linearGradient4526)"
       inkscape:connector-curvature="0" />
    <path
       class="fil8"
       d="m -347,-333 c -326,-126 1906,2289 4372,3179 2261,816 4651,1023 4339,990 312,33 461,212 457,382 -3,178 -169,353 -491,295 322,58 -2010,80 -4341,52 -2332,-27 -4662,-272 -4336,-589 -326,317 -490,-795 -490,-1988 0,-1194 164,-2447 490,-2321 z"
       id="path38"
       style="fill:url(#g)"
       inkscape:connector-curvature="0" />
  </g>
  <path
     class="fil9"
     d="M 1410,40.157673 H 8141 V 4104.1577 H 1410 Z"
     id="path42"
     inkscape:connector-curvature="0"
     style="fill:none" />
</svg>
