<?xml version="1.0" standalone="no"?>
<!DOCTYPE svg PUBLIC "-//W3C//DTD SVG 1.1//EN" "http://www.w3.org/Graphics/SVG/1.1/DTD/svg11.dtd" >
<svg xmlns="http://www.w3.org/2000/svg">
<metadata>Generated by Syncfusion Metro Studio</metadata>
<defs>
<font id="ConnectIdents" horiz-adv-x="1024" >
<font-face units-per-em="1024" ascent="819" descent="-205" />
<missing-glyph horiz-adv-x="1024" />

<glyph unicode="&#xe700;" glyph-name="announcement" d="M455.6,174.4L455.6,83.8 318.1,83.8 318.1,2.5 693.1,2.5 693.1,83.8 555.6,83.8 555.6,174.4C752.5,193.2,905.6,327.5,905.6,493.2L818.1,493.2C805.6,361.9 671.2,258.8 502.5,258.8 333.8,258.8 199.4,361.9 186.9,493.2L99.4,493.2C99.4,327.5,252.5,193.1,455.6,174.4z M318.1,852.5L318.1,524.4C318.1,440 402.5,374.4 502.5,374.4 602.5,374.4 686.9,443.2 686.9,524.4L686.9,852.5C686.9,936.9 605.6,1002.5 502.5,1002.5 399.4,1002.5 315,936.9 318.1,852.5z" />

<glyph unicode="&#xe701;" glyph-name="blog" d="M691.8,559.6L691.8,559.6 691.6,559.6C689.5,559,673.4,553.3,678.3,511.3L681.4,353.1C681.4,353.1,624.7,301.1,684.5,267.8L809.8,26 809.8,222.2 809.8,261.7C809.8,261.7,736.4,310.1,825.5,338.5L825.9,338.3 826.6,338.6C915.1,310,841.7,261.6,841.7,261.6L841.7,222 841.7,26 967,267.9C1026.9,301.2,970.1,353.2,970.1,353.2L973.3,511.4C978.5,556.1,959.8,559.7,959.8,559.7L826,559.7 825.6,559.7 691.8,559.7 691.8,559.6z M648.7,612.3C648.7,595.1,662.8,581.1,679.9,581.1L971.3,581.1C988.5,581.1 1002.5,595 1002.5,612.3 1002.5,629.6 988.5,643.5 971.3,643.5L679.8,643.5C662.8,643.5,648.8,629.5,648.7,612.3z M2.6,804.3L2.7,687.8 2.7,595.6 2.7,281.6C2.7,243.2 34.7,212.1 74.3,212.1 113.8,212.1 145.8,227.5 145.8,265.9L145.8,595.5 145.8,687.7 145.8,804.2 2.6,804.2 2.6,804.3z M622.2,819.5C640,819.5 654.5,805.8 654.5,788.9 654.5,781.9 652,775.5 647.8,770.3L641.1,764.1C635.8,760.5,629.3,758.3,622.2,758.3L327.2,758.3C309.4,758.3 294.9,772 294.9,788.9 294.9,805.8 309.3,819.5 327.2,819.5L622.2,819.5z M234.4,225.3L473.5,225.3 566.8,225.3 656.9,225.3 649.5,239.6C623,258.2 614.9,280.7 613,297.2 609.5,327.4 624.3,353 636.5,368.5L633.7,508.8C631.8,526.8 633,541.1 636,552.8 616.8,565.6 604.1,587.5 604.1,612.3 604.1,624.5 607.5,635.8 612.9,645.9L473.5,645.9 473.5,645.5 334.6,645.5C333.8,645.5,333.3,645.9,332.6,645.9L331.3,645.9C315.5,645.9 302.7,659.3 302.7,676 302.7,692.7 315.5,706.2 331.3,706.2L625.7,706.2C640.2,706.2 651.7,694.8 653.6,680.1 660.6,682.5 668,684 675.8,684L873.6,684 873.6,697.2 873.6,979 234.4,979 234.4,225.3z" />

<glyph unicode="&#xe702;" glyph-name="course-description" d="M282.6,786.9L281.1,789.1C270.7,804.8 263.1,829.2 271,865.6 271,865.6 298.9,937.6 226.4,966.4 226.4,966.4 121.6,1004.6 52.1,877.9 52.1,877.9 29.6,819.1 79,786.5 79,786.5 128.2,772.6 133.4,765.8 133.4,765.8 165.2,752.8 179.9,728.7L181.2,726.4 14.9,627.2C14.9,627.2,95.9,516,181.9,386.3L190.5,373.3 188.2,371.5C172.7,360.2 147.5,351 108.7,359.4 108.7,359.4 36.6,387.3 7.89999999999999,314.8 7.89999999999999,314.8 -30.3,210.1 96.4,140.7 96.4,140.7 155.2,118.2 187.8,167.5 187.8,167.5 201.6,216.7 208.5,221.9 208.5,221.9 224,259.5 252.2,271.8L255.1,273 266.9,254C331.6,148.7,383.4,51.4,383.3,9.6L658.9,174 659.1,175.1C662.3,207 618.7,224.9 618.7,224.9 614.8,230.1 577.7,240.5 577.7,240.5 540.5,265 557.5,309.4 557.5,309.4 590.3,369 633.4,380.2 661.1,380.1 677.7,380.1 688.8,376 688.8,376 743.4,354.4 722.4,300.1 722.4,300.1 712.9,256.2 733.3,235.4 744.1,227.7L746.5,226.1 1002.4,378.8 846,639.5 842.8,639.4C807.6,636.5 788,588.8 788,588.8 781.5,583.9 768.5,537.5 768.5,537.5 737.8,491 682.3,512.2 682.3,512.2 562.7,577.7 598.9,676.5 598.9,676.5 626,744.9 693.9,718.6 693.9,718.6 746.5,707.2 772.6,730.2 783.2,744L783.4,744.2 632.6,995.6 282.6,786.9z" />

<glyph unicode="&#xe703;" glyph-name="course-group" d="M724.4,510.3C752.5,472.8,771.3,429.1,771.3,379.1L771.3,207.2 1002.6,207.2 1002.6,382.2C1002.6,457.2,943.2,516.6,868.2,516.6L768.2,516.6C755.6,516.6,740,513.4,724.4,510.3z M2.5,382.2L2.5,207.2 218.1,207.2 218.1,379.1C218.1,429.1 236.9,476 268.1,513.5 258.7,516.6 246.2,516.6 236.8,516.6L136.8,516.6C61.9,516.6,2.5,457.2,2.5,382.2z M255.6,375.9L255.6,147.8 733.7,147.8 733.7,375.9C733.7,472.8,655.6,550.9,558.7,550.9L430.6,550.9C333.8,550.9,255.6,472.8,255.6,375.9z M711.9,641.6C711.9,582.2 761.9,532.2 821.3,532.2 880.7,532.2 930.7,582.2 930.7,641.6 930.7,701 880.7,751 821.3,751 761.9,750.9 711.9,700.9 711.9,641.6z M80.6,641.6C80.6,582.2 130.6,532.2 190,532.2 249.4,532.2 299.4,582.2 299.4,641.6 299.4,701 249.4,751 190,751 130.6,751 80.6,700.9 80.6,641.6z M465,854.1C461.9,851 461.9,851 458.7,851 455.6,847.9 455.6,847.9 452.4,847.9 449.2,847.9 449.3,844.8 446.1,844.8 442.9,844.8 443,841.7 439.8,841.7 436.6,841.7 436.7,838.6 433.5,838.6 430.3,838.6 430.4,835.5 427.2,835.5 424,835.5 424.1,832.4 420.9,832.4 417.7,832.4 417.8,829.3 414.6,829.3 411.4,829.3 411.5,826.2 408.3,826.2 408.3,823.1 405.2,823.1 402,816.8 398.9,813.7 398.9,813.7 395.7,810.5 392.5,807.3 389.4,807.4 389.4,804.2 389.4,801 386.3,801.1 386.3,797.9 386.3,794.7 383.2,794.8 383.2,791.6 383.2,788.4 380.1,788.5 380.1,785.3 380.1,782.1 377,782.2 377,779 377,775.9 373.9,775.9 373.9,772.7 373.9,769.6 370.8,769.6 370.8,766.4 370.8,763.2 367.7,763.3 367.7,760.2 367.7,757.1 364.6,757.1 364.6,753.9 361.5,750.8 364.6,750.8 361.5,747.6 358.4,744.5 358.4,744.5 358.4,741.3 355.3,738.2 355.3,738.2 355.3,735L355.3,728.8 355.3,722.5 355.3,716.2 355.3,709.9 355.3,703.6 355.3,697.300000000001 355.3,691.000000000001 355.3,684.700000000001C358.4,681.600000000001 358.4,681.600000000001 358.4,678.400000000001 361.5,675.300000000001 358.4,675.300000000001 361.5,672.100000000001 364.6,668.900000000001 364.6,669.000000000001 364.6,665.800000000001 364.6,662.600000000001 367.7,662.700000000001 367.7,659.500000000001 367.7,656.300000000001 370.8,656.400000000001 370.8,653.200000000001 370.8,650.100000000001 373.9,650.100000000001 373.9,646.900000000001 373.9,643.800000000001 377,643.800000000001 377,640.600000000001 377,637.400000000001 380.1,637.500000000001 380.1,640.600000000001 380.1,637.500000000001 383.2,637.500000000001 383.2,634.400000000001 383.2,631.300000000001 386.3,631.300000000001 386.3,628.100000000001 386.3,624.900000000001 389.4,625.000000000001 389.4,621.800000000001 392.5,618.700000000001 392.5,618.700000000001 395.7,615.500000000001 398.9,612.300000000001 398.8,612.400000000001 402,609.200000000001 405.2,606.000000000001 408.3,606.100000000001 408.3,606.100000000001 411.4,603.000000000001 408.3,599.800000000001 411.4,599.800000000001 414.5,599.800000000001 414.5,596.700000000001 417.7,596.700000000001 420.9,596.700000000001 420.8,593.600000000001 424,593.600000000001 427.2,593.600000000001 427.1,590.500000000001 430.3,590.500000000001 433.5,590.500000000001 433.4,590.500000000001 436.6,587.400000000001 439.8,584.300000000001 442.9,587.400000000001 446,587.400000000001 449.1,587.400000000001 449.1,587.400000000001 452.3,584.300000000001 455.5,581.200000000001 455.4,581.200000000001 458.6,581.200000000001 461.7,578.100000000001 461.7,581.200000000001 464.9,578.100000000001 468.1,575.000000000001 468,575.000000000001 471.2,575.000000000001L483.7,575.000000000001 490,575.000000000001 496.3,575.000000000001 502.6,575.000000000001 508.9,575.000000000001 515.1,575.000000000001 521.4,575.000000000001 527.7,575.000000000001C530.8,575.000000000001 530.8,575.000000000001 534,578.100000000001 537.2,581.200000000001 537.1,578.100000000001 540.3,581.200000000001 543.5,584.300000000001 543.4,584.300000000001 546.6,584.300000000001 549.8,584.300000000001 549.7,587.400000000001 552.9,587.400000000001 556.1,587.400000000001 556,590.500000000001 559.2,590.500000000001 562.4,590.500000000001 562.3,593.600000000001 565.5,593.600000000001 568.7,593.600000000001 568.6,596.700000000001 571.8,596.700000000001 575,596.700000000001 574.9,599.800000000001 578.1,599.800000000001 581.3,599.800000000001 581.2,602.900000000001 584.4,602.900000000001 587.599999999999,602.900000000001 587.5,606.000000000001 590.699999999999,606.000000000001 590.699999999999,606.000000000001 590.699999999999,606.000000000001 593.8,609.100000000001 596.9,612.200000000001 596.9,612.200000000001 600.099999999999,615.400000000001 603.299999999999,618.600000000001 606.399999999999,618.500000000001 606.399999999999,621.700000000001 606.399999999999,624.900000000001 609.499999999999,624.800000000001 609.499999999999,628.000000000001 609.499999999999,631.200000000001 612.599999999999,631.100000000001 612.599999999999,634.300000000001 612.599999999999,637.400000000001 615.699999999999,637.400000000001 615.699999999999,640.500000000001 615.699999999999,643.600000000001 618.8,643.600000000001 618.8,646.800000000001 618.8,649.900000000001 621.9,649.900000000001 621.9,653.100000000001 621.9,656.200000000001 625,656.200000000001 625,659.400000000001 625,662.600000000001 628.1,662.500000000001 628.1,665.700000000001 628.1,668.900000000001 631.2,668.800000000001 631.2,672.000000000001 634.3,675.100000000001 631.2,675.100000000001 634.3,678.300000000001 637.4,681.500000000001 637.4,681.400000000001 637.4,684.600000000001 640.5,687.700000000001 640.5,687.700000000001 640.5,690.900000000001L640.5,697.200000000001 640.5,703.500000000001 640.5,709.800000000001 640.5,716.1 640.5,722.4 640.5,728.7 640.5,734.9 640.5,741.2C637.4,744.3 637.4,744.3 637.4,747.5 634.3,750.6 637.4,750.6 634.3,753.8 631.2,756.9 631.2,756.9 631.2,760.1 631.2,763.2 628.1,763.2 628.1,766.3 628.1,769.4 625,769.4 625,772.6 625,775.7 621.9,775.7 621.9,778.9 621.9,782 618.8,782 618.8,785.2 618.8,788.4 615.699999999999,788.3 615.699999999999,791.5 615.699999999999,794.7 612.599999999999,794.6 612.599999999999,797.8 612.599999999999,801 609.499999999999,800.9 609.499999999999,804.1 609.499999999999,807.3 606.399999999999,807.2 606.399999999999,810.4L600.099999999999,816.7C596.999999999999,819.8 596.999999999999,823 593.8,823 590.6,823 590.699999999999,826.1 587.5,826.1 584.3,826.1 584.4,829.2 581.2,829.2 578,829.2 578.1,832.3 574.9,832.3 571.7,832.3 571.8,835.4 568.6,835.4 565.4,835.4 565.5,838.5 562.3,838.5 559.1,838.5 559.2,841.6 556,841.6 552.8,841.6 552.9,844.7 549.7,844.7 546.5,844.7 546.6,847.8 543.4,847.8 540.3,850.9 540.3,847.8 537.1,850.9 533.9,854 534,850.9 530.8,854 527.6,857.1 527.7,857.1 524.5,857.1L518.2,857.1 511.9,857.1 505.7,857.1 499.4,857.1 490,857.1 483.7,857.1 477.4,857.1 471.1,857.1C468.1,854.1,468.1,857.2,465,854.1z" />

<glyph unicode="&#xe704;" glyph-name="document" d="M315.2,588.3L31.1,588.3C12.4,588.3,-0.0999999999999979,575.8,3,557.1L81,141.9C84.1,126.3,99.8,110.7,118.5,110.7L889.6,110.7C905.2,110.7,923.9,123.2,927.1,141.9L1002,560.2C1005.1,575.8,992.6,591.4,973.9,591.4L849.1,591.4 390.1,707 315.2,588.3z M84.1,860L84.1,794.4 84.1,775.7 84.1,669.5 280.8,669.5 352.6,781.9 802.2,672.6 920.9,672.6 920.9,794.3 421.3,794.3 421.3,860C421.3,878.7,405.7,894.3,387,894.3L121.6,894.3C99.8,894.3,84.1,878.7,84.1,860z" />

<glyph unicode="&#xe705;" glyph-name="ephorus" d="M872.8,85.8C872.8,51.2 840.5,23.1 800.6,23.1 760.7,23.1 728.3,51.2 728.3,85.8 728.3,120.4 760.7,148.5 800.6,148.5 840.5,148.5 872.8,120.5 872.8,85.8z M612.8,85.8C612.8,51.2 580.4,23.1 540.5,23.1 500.5,23.1 468.2,51.2 468.2,85.8 468.2,120.4 500.6,148.5 540.5,148.5 580.4,148.5 612.8,120.5 612.8,85.8z M529.7,307.1C529.4,306 453.1,132.6 453.1,132.6 448.1,121.4 445.4,109 445.4,96 445.4,44.4 488.5,2.50000000000003 541.7,2.50000000000003 591.1,2.50000000000003 631.8,38.7 637.5,85.6 637.5,85.6 650,154.3 659.8,208.3L681.1,208.3C691,154.3 703.5,85.6 703.7,85.3 709.2,38.7 749.9,2.50000000000001 799.3,2.50000000000001 852.5,2.50000000000001 895.6,44.4 895.6,96 895.6,109 892.8,121.4 887.9,132.6 887.9,132.6 811.7,305.9 811.4,307.1 804.5,332.6 767.2,345.4 728.1,335.7 694.5,327.4 674.6,307.7 670.5,284.1 666.5,307.7 646.5,327.4 612.9,335.7 603.2,338.1 593.5,339.1 584.4,338.9 557.1,338.1 534.8,326.2 529.7,307.1z M510.3,474.1L510.3,430.2 202.2,430.2 202.2,474.1 510.3,474.1z M643.5,664.3L643.5,620.4 202.2,620.4 202.2,664.3 643.5,664.3z M568,971.3L568,853C568,836.8,581,823.7,597.2,823.7L706.7,823.7 567.8,971.3 568,971.3z M109.5,939L109.5,171.7C109.5,136.7,137.9,108.3,172.9,108.3L396.5,108.3C397.9,123 400.8,137.5 406.9,151.2 434.5,214.1 475.6,307.5 482.2,322.9 494.9,361.9 535.8,387.1 587,387.1 599.8,387.1 612.7,385.5 625.5,382.3 642.1,378.2 657.4,371.7 670.6,363.3 683.7,371.7 699,378.2 715.6,382.3 722.7,384 729.8,385.2 737,386L737,781.3 589,781.3C554,781.3,525.6,809.7,525.6,844.7L525.6,1002.4 172.9,1002.4C137.9,1002.5,109.5,974,109.5,939z" />

<glyph unicode="&#xe706;" glyph-name="forum" d="M526.5,443.9C526.5,312.5 633.1,205.9 764.5,205.9 778.2,205.9 791.5,207.3 804.5,209.5L937.6,108.1 891.2,242.6C958,284.7 1002.5,359 1002.5,443.8 1002.5,575.3 896,681.8 764.5,681.8 633.1,681.8 526.5,575.3 526.5,443.9z M2.5,335.2L134.8,335.2 134.8,141.4 263.8,335.2 466.3,335.2 463.9,342.2C453.1,374.2 447.2,408.3 447.2,443.9 447.2,618.8 589.5,761.2 764.5,761.2L764.5,897 2.5,897 2.5,335.2z" />

<glyph unicode="&#xe707;" glyph-name="chat" d="M790,508.7C790,468.1 758.7,436.8 718.1,436.8 677.5,436.8 646.2,468 646.2,508.7 646.2,549.3 677.5,580.6 718.1,580.6 755.6,580.6 786.9,546.3 790,508.7z M574.4,508.7C574.4,468.1 543.1,436.8 502.5,436.8 461.9,436.8 430.6,468 430.6,508.7 430.6,549.3 461.9,580.6 502.5,580.6 543.1,580.6 574.4,546.3 574.4,508.7z M358.8,508.7C358.8,468.1 327.5,436.8 286.9,436.8 246.3,436.8 215,468 215,508.7 215,549.3 246.3,580.6 286.9,580.6 327.5,580.6 358.8,546.3 358.8,508.7z M2.5,543.1C2.5,440 52.5,346.2 136.9,274.3 133.8,205.6 118.2,114.9 68.2,68 162,68 258.8,133.6 318.2,177.4 374.4,158.7 436.9,149.3 502.6,149.3 777.6,149.3 1002.6,327.4 1002.6,543.1 1002.6,761.8 777.6,936.8 502.6,936.8 227.6,936.8 2.5,761.9 2.5,543.1z" />

<glyph unicode="&#xe708;" glyph-name="user" d="M15.5,132.5L15.5,2.5 989.5,2.5 989.5,132.4C989.5,284.6 875.6,410.2 728.4,428.7 665.4,381.3 587.2,353.2 502.5,353.2 417.8,353.2 339.6,381.3 276.6,428.7 129.4,410.1 15.5,284.6 15.5,132.5z M229.8,729.7C229.8,579.1 351.9,457 502.5,457 653.1,457 775.2,579 775.2,729.7 775.2,880.4 653.1,1002.5 502.5,1002.5 351.9,1002.5 229.8,880.3 229.8,729.7z" />

<glyph unicode="&#xe709;" glyph-name="calendar" d="M872.4,269.1L872.4,115.5 662.4,115.5 662.4,269.1 872.4,269.1z M612.2,269.1L612.2,115.5 402.2,115.5 402.2,269.1 612.2,269.1z M352.1,269.1L352.1,115.5 142.1,115.5 142.1,269.1 352.1,269.1z M872.4,472.8L872.4,319.2 662.4,319.2 662.4,472.8 872.4,472.8z M612.2,472.8L612.2,319.2 402.2,319.2 402.2,472.8 612.2,472.8z M352.1,472.8L352.1,319.2 142.1,319.2 142.1,472.8 352.1,472.8z M872.4,676.5L872.4,523 662.4,523 662.4,676.6 872.4,676.6z M612.2,676.5L612.2,523 402.2,523 402.2,676.6 612.2,676.6z M352.1,676.5L352.1,523 142.1,523 142.1,676.6 352.1,676.6z M10.4,861.5L10.4,81C10.4,37.2,48,-0.4,91.9,2.7L913.1,2.7C957,2.7,994.6,37.2,994.6,84.2L994.6,861.5C994.6,905.4,960.1,943,913.1,943L831.6,943 831.6,783.1 612.2,783.1 612.2,942.9 392.8,942.9 392.8,783.1 173.4,783.1 173.4,942.9 91.9,942.9C48,942.9,10.4,905.3,10.4,861.5z M678,949.2L678,836.4 784.6,836.4 784.6,949.2C784.6,977.4 759.5,1002.5 731.3,1002.5 700,1002.5 678,977.4 678,949.2z M239.2,949.2L239.2,836.4 345.8,836.4 345.8,949.2C345.8,977.4 320.7,1002.5 292.5,1002.5 264.3,1002.5 239.2,977.4 239.2,949.2z" />

<glyph unicode="&#xe70a;" glyph-name="link" d="M758.7,168.1C740,136.8 721.2,108.7 699.3,86.8 796.2,118.1 880.6,183.7 933.7,268.1L796.3,268.1C786.9,233.7,774.4,199.4,758.7,168.1z M593.1,71.2C640,83.7 683.7,124.3 718.1,190 730.6,211.9 743.1,240 752.5,268.1L596.3,268.1 593.1,71.2z M418.1,190C455.6,118.1,502.5,74.4,552.5,68.1L555.6,268.1 386.9,268.1C396.3,240,408.8,215,418.1,190z M811.9,308.7L958.8,308.7C983.8,361.8,999.4,418.1,1002.5,477.4L830.6,477.4C830.6,418.1,821.2,361.9,811.9,308.7z M596.3,308.7L765,308.7C780.6,361.8,786.9,418.1,790,477.4L599.4,477.4 596.3,308.7z M486.9,452.5L371.3,336.9C374.4,327.5,374.4,318.2,377.5,308.8L555.6,308.8 555.6,477.5 508.7,477.5 486.9,452.5z M830.6,518.1L1002.5,518.1C999.4,580.6,983.8,640,958.8,693.1L811.9,693.1C824.4,640,830.6,580.6,830.6,518.1z M599.4,518.1L790,518.1C790,580.6,780.6,640,768.1,693.1L599.4,693.1 599.4,518.1z M355.6,518.1L558.7,518.1 558.7,693.1 380.6,693.1C365,643.1,355.6,583.8,355.6,518.1z M765,833.8C780.6,805.7,793.1,771.3,802.5,736.9L936.9,736.9C883.8,824.4 802.5,886.9 705.6,918.1 727.5,893.1 746.3,865 765,833.8z M143.1,502.5L143.1,480.6 2.5,480.6 227.5,249.4 455.6,477.5 311.9,477.5 311.9,499.4C315,627.5 343.2,752.5 386.9,836.9 405.7,868.2 424.4,896.3 446.3,918.2 271.3,865 143.1,696.2 143.1,502.5z M599.4,736.9L755.7,736.9C746.3,765 736.9,790 724.4,815 690,880.6 646.3,921.2 602.5,933.7L599.4,736.9z M424.4,818.1C411.9,793.1,399.4,765,390,736.8L558.7,736.8 561.8,936.8C511.9,930.6,461.9,890,424.4,818.1z" />

<glyph unicode="&#xe70b;" glyph-name="location" d="M665,690C665,602.5 593.1,533.7 502.5,533.7 411.9,533.7 340,602.5 340,690 340,777.5 411.9,846.3 502.5,846.3 590,846.3 665,774.4 665,690z M186.9,699.4C186.9,640,205.7,586.9,236.9,540L368.2,274.4 502.5,2.5 640,274.4 771.3,540C799.4,586.9 818.2,640 818.2,699.4 818.2,868.1 677.6,1002.5 502.6,1002.5 327.6,1002.5 186.9,868.1 186.9,699.4z" />

<glyph unicode="&#xe70c;" glyph-name="note" d="M272,171.3L675.1,171.3 675.1,230.7 272,230.7 272,171.3z M272,318.1L540.8,318.1 540.8,377.5 272,377.5 272,318.1z M481.3,527.5L653.2,586.9 531.3,702.5 481.3,527.5z M559.5,752.5L593.9,749.4 600.2,715 644,702.5 644,674.4 687.8,658.8 694.1,630.7 853.5,805.7 722,924.4 559.5,752.5z M322,846.3L159.5,674.4 81.4,593.2 81.4,99.4C81.4,46.3,125.2,2.5,178.3,2.5L725.2,2.5C778.3,2.5,822.1,46.3,822.1,99.4L822.1,705.7 744,627.6 744,99.4C744,90,734.6,80.7,725.2,80.7L178.2,80.7C168.8,80.7,159.5,90.1,159.5,99.4L159.5,615 297,615C422,605.6,425.1,718.1,425.1,718.1L425.1,849.4 590.7,849.4 662.6,927.5 397,927.5 322,846.3z M784.5,990L765.7,971.2 893.8,849.3 912.6,868C925.1,880.5,928.2,902.4,915.7,911.8L825.1,996.2C822,999.3 815.7,1002.5 809.5,1002.5 800.1,1002.5 790.7,999.4 784.5,990z" />

<glyph unicode="&#xe70d;" glyph-name="assessment" d="M443.5,189.5L730.6,189.5 730.6,269.5 443.5,269.5 443.5,189.5z M283.5,189.5L394.4,189.5 394.4,269.5 283.5,269.5 283.5,189.5z M443.5,343.5L730.6,343.5 730.6,423.6 443.5,423.6 443.5,343.5z M283.5,343.5L394.4,343.5 394.4,423.6 283.5,423.6 283.5,343.5z M443.5,497.7L730.6,497.7 730.6,577.7 443.5,577.7 443.5,497.7z M283.5,497.7L394.4,497.7 394.4,577.7 283.5,577.7 283.5,497.7z M443.5,651.8L730.6,651.8 730.6,731.9 443.5,731.9 443.5,651.8z M283.5,651.8L394.4,651.8 394.4,731.9 283.5,731.9 283.5,651.8z M114.1,2.5L155.7,2.5 225,2.5 779.8,2.5 890.8,2.5 890.8,113.4 890.8,904.8 779.8,904.8 779.8,113.4 225.1,113.4 225.1,904.8 114.1,904.8 114.1,2.5z M564.7,967.1L564.7,904.8 436.3,904.8 436.3,967.1 564.7,967.1z M396.5,904.8L300.8,904.8 300.8,824.8 700,824.8 700,904.8 604.2,904.8 604.2,1002.5 396.5,1002.5 396.5,904.8z" />

<glyph unicode="&#xe70e;" glyph-name="assignment" d="M772.3,343.1L577.9,343.1 577.9,132.9 428.4,132.9 428.4,343.2 232.7,343.2 502.5,613 772.3,343.1z M66,58.1L939,58.1 1002.5,687.7 2.5,687.7 66,58.1z M113.6,878.1L34.2,878.1 34.2,809.4 970.7,809.4 970.7,878.1 513,878.1 513,947 113.6,947 113.6,878.1z" />

<glyph unicode="&#xe70f;" glyph-name="streaming-video" d="M68.4,65C68.4,30.5,96.4,2.5,130.9,2.5L908.7,2.5C943.2,2.5,971.2,30.5,971.2,65L971.2,615.4 68.4,615.4 68.4,65z M27.4,832.5L74.8,662.5 253.6,696.2 103,846.8 27.4,832.5z M200.1,865.1L350.7,714.5 511.4,744.8 360.7,895.4 200.1,865.1z M457.8,913.7L608.5,763 761.9,791.8 611.1,942.6 457.8,913.7z M708.1,960.9L858.8,810.2 977.5,832.5 928.6,1002.5 708.1,960.9z" />

<glyph unicode="&#xe710;" glyph-name="wiki" d="M2.5,2.6L203.4,72.5 72.3,203.6 2.5,2.6z M165.6,472.3L88.8,251.2 251,89.1 472.1,165.8 472.2,165.7 490.5,184 441.8,318.7 327.8,328 315,442.9 180.6,487.3 165.6,472.3z M662,968.7L224.6,531.3 318.3,499.7 724.2,905.6 725,905.7 777.1,853.7 776.9,852.9 376.3,452.3 377.9,378 449.7,378.9 850.3,779.5 851.1,779.6 903.2,727.6 903,726.8 497.1,320.9 531.2,224.7 968.6,662.1 1002.5,696 695.9,1002.6 662,968.7z" />

<glyph unicode="&#xe711;" glyph-name="glossary" d="M515.2,733.4L515.2,665.2 381.5,665.2 381.5,733.4 515.2,733.4z M188.7,733.4L188.7,665.2 55,665.2 55,733.4 188.7,733.4z M574.2,736.7L796.9,156.4 1002.5,235.3 779.9,815.6 574.2,736.7z M322.5,156.5L574.2,156.5 574.2,736.7 574.2,848.8 322.5,848.8 322.5,156.5z M2.5,156.5L254.2,156.5 254.2,848.8 2.5,848.8 2.5,156.5z" />

<glyph unicode="&#xe712;" glyph-name="peer-assessment" d="M2.5,243.5C2.5,192.3 44.1,150.7 95.4,150.7 146.6,150.7 188.2,192.2 188.2,243.5 188.2,294.8 146.7,336.4 95.4,336.4 44.1,336.4 2.5,294.7 2.5,243.5z M707.9,193.4C707.9,112 773.9,46.1 855.2,46.1 936.6,46.1 1002.5,112 1002.5,193.4 1002.5,274.8 936.6,340.7 855.2,340.7 773.8,340.7 707.9,274.8 707.9,193.4z M195.9,314.9L209.1,292.4 282.3,335.4 269,357.9 195.9,314.9z M545.7,322.3L675.7,248.1 700.1,290.8 570,365 545.7,322.3z M289.9,415.4C289.9,344.9 347.1,287.7 417.6,287.7 488.1,287.7 545.3,344.9 545.3,415.4 545.3,486 488.1,543.2 417.6,543.2 347.1,543.2 289.9,486 289.9,415.4z M395.1,563.6L440.1,563.6 440.1,674.6 395.1,674.6 395.1,563.6z M289.9,831.3C289.9,760.8 347.1,703.6 417.6,703.6 488.1,703.6 545.3,760.8 545.3,831.3 545.3,901.9 488.1,959.1 417.6,959.1 347.1,959.1 289.9,901.9 289.9,831.3z" />

<glyph unicode="&#xe713;" glyph-name="app-weblcms-tool-search" d="M10.5,135.3C-8.3,116.6 7.4,75.9 41.8,41.5 76.2,7.1 120,-5.4 135.6,10.2L410.8,285.4C385.8,301 363.9,319.8 342,341.7 320.1,363.6 301.4,385.5 285.7,410.5L10.5,135.3z M814.1,817C904.8,729.4 901.7,585.6 814.1,494.9 726.5,407.3 579.6,407.3 492,494.9 404.4,582.4 404.4,729.4 492,817 538.9,860.8 595.2,882.7 654.6,882.7 714,882.7 770.3,860.7 814.1,817z M407.6,901.4C273.2,763.8 273.2,545 410.8,410.5 545.2,276.1 767.2,276.1 901.7,410.5 1036.1,545 1036.1,767 901.7,901.4 832.9,967.1 742.2,1001.5 654.7,1001.5 567.2,1001.5 476.4,967 407.6,901.4z" />

<glyph unicode="&#xe714;" glyph-name="course-copier" d="M821.8,644.2C831.1,644.2,837.4,638,837.4,628.6L837.4,77.3C837.4,67.9,831.1,61.7,821.8,61.7L410.6,61.7C401.3,61.7,395,67.9,395,77.3L395,158.3 395,230 395,435.6 504,435.6C597.5,429.3,600.6,513.5,600.6,513.5L600.6,641.2 600.6,644.3 821.8,644.3z M694.1,930.8C703.4,930.8,712.8,921.5,712.8,912.1L712.8,700.3 575.7,700.3 522.7,644.2 391.9,507.2 339,451.1 339,229.9 198.8,229.9C189.5,229.9,180.1,239.2,180.1,248.6L180.1,681.6 314,681.6C426.2,672.3,429.3,775.1,429.3,775.1L429.3,930.8 694.1,930.8z M329.6,934L173.8,768.8 108.4,700.3 108.4,248.6C108.4,198.8,148.9,158.3,198.7,158.3L335.8,158.3 335.8,77.3C335.8,36.8,370.1,2.50000000000001,410.5,2.50000000000001L821.7,2.50000000000001C862.2,2.50000000000001,896.5,36.8,896.5,77.3L896.5,625.6C896.5,666.1,862.2,700.3,821.7,700.3L784.3,700.3 784.3,912.1C784.3,961.9,743.8,1002.4,694,1002.4L395,1002.4 329.6,934z" />

<glyph unicode="&#xe715;" glyph-name="course-truncater" d="M502.5,445.4L598.1,541 675.9,463.2 580.3,367.6 675.9,271.9 598.1,194.1 502.5,289.7 406.8,194.1 329,271.9 424.7,367.6 329.1,463.2 406.9,541 502.5,445.4z M66,58.1L939,58.1 1002.5,687.7 2.5,687.7 66,58.1z M103,878.1L23.7,878.1 23.7,809.3 960.2,809.3 960.2,878.1 502.5,878.1 502.5,947 103,947 103,878.1z" />

<glyph unicode="&#xe716;" glyph-name="course-deleter" d="M919.4,309.6L919.4,240.1 624.1,240.1 624.1,309.6 919.4,309.6z M540.9,274.9C540.9,147.5 644.3,44.1 771.7,44.1 899.2,44.1 1002.5,147.5 1002.5,274.9 1002.5,402.3 899.1,505.6 771.7,505.6 644.3,505.6 540.9,402.2 540.9,274.9z M62.1,127.1L529.9,127.1C503.4,170.3 487.4,220.5 487.4,274.8 487.4,431.6 615,559.1 771.8,559.1 826.3,559.1 876.8,543 920.1,516.2L940.4,717.7 2.5,717.7 62.1,127.1z M106.7,896.5L32.3,896.5 32.3,832 910.6,832 910.6,896.5 481.3,896.5 481.3,961 106.7,961 106.7,896.5z" />

<glyph unicode="&#xe717;" glyph-name="course-settings" d="M195,178.8C216.8,157 216.8,125.8 195,104 173.2,82.2 142,82.2 120.2,104 98.4,125.8 98.4,157 120.2,178.8 129.5,188.1 145.1,194.4 157.6,194.4 170.1,194.4 182.5,188.2 195,178.8z M519.2,353.4L644,228.7 659.5,153.9 862.2,19.8 912.1,69.7 778,272.4 703.2,288 578.5,412.7 519.2,353.4z M67.3,238C17.4,188.2 17.4,104 67.3,54.1 117.1,1.09999999999999 201.3,4.2 251.2,54.1 282.4,85.3 347.8,157 428.9,244.3L257.4,415.8 67.3,238z M113.9,771.2L403.9,481.3C413.2,471.9 413.2,456.3 403.9,447 394.5,437.6 379,437.6 369.6,447L79.6,736.9C70.3,746.3 70.3,761.9 79.6,771.2 82.7,774.4 89,777.5 95.2,777.5 101.5,777.5 107.7,774.3 113.9,771.2z M185.7,842.9L475.5,550C484.9,540.6 484.9,525 475.5,515.7 466.1,506.3 450.5,506.3 441.2,515.7L151.3,805.6C138.8,818.1 138.8,833.7 151.3,843 154.4,846.1 160.7,849.2 166.9,849.2 173.2,849.2 179.4,846 185.7,842.9z M42.3,874.1C-10.7,824.2,-10.7,740,42.3,687L419.5,319.1 606.5,506.2 232.4,877.2C207.5,902.1 173.2,914.6 138.9,914.6 104.6,914.6 70.3,902.2 42.3,874.1z M516.1,746.3C516.1,612.2 625.2,503 759.3,503 893.4,503 1002.5,612.1 1002.5,746.2 1002.5,777.4 996.2,805.4 986.9,833.5L856,705.7C834.1,680.8,796.7,680.8,771.8,705.7L721.9,755.6C697,777.5,697,814.9,721.9,839.8L852.8,970.8C824.8,983.2 793.6,989.5 759.3,989.5 625.2,989.5 516.1,880.3 516.1,746.3z" />

<glyph unicode="&#xe718;" glyph-name="rights" d="M571.3,291.6C571.3,269.7,555.7,251,536.9,241.6L536.9,116.6C536.9,101 521.3,91.6 502.5,91.6 483.7,91.6 468.1,104.1 468.1,116.6L468.1,241.6C446.2,251 433.7,269.7 433.7,291.6 433.7,326 461.8,351 499.3,351 536.9,350.9 565,325.9 571.3,291.6z M808.7,650.9L193.1,650.9C193.1,797.8 330.6,919.6 499.3,919.6 668.1,919.7 805.6,797.8 808.7,650.9z M99.4,650.9L65,650.9C30.6,650.9,2.5,625.9,2.5,597.8L2.5,57.2C2.5,29.1,30.6,4.1,65,4.1L940,4.1C974.4,4.1,1002.5,29.1,1002.5,57.2L1002.5,597.8C1002.5,625.9,974.4,650.9,940,650.9L899.4,650.9C899.4,844.7 721.3,1000.9 499.4,1000.9 277.5,1000.9 99.4,844.7 99.4,650.9z" />

<glyph unicode="&#xe719;" glyph-name="reporting" d="M2.5,447.7C2.5,200 203.1,-0.6 450.8,2.5 698.4,2.5 899,203.1 899,450.8L450.8,450.8 450.8,899.1C203.1,899.1,2.5,695.3,2.5,447.7z M554.2,554.2L1002.5,554.2C1002.5,801.9,801.9,1002.5,554.2,1002.5L554.2,554.2z" />

<glyph unicode="&#xe71a;" glyph-name="course-sections" d="M585.6,783L585.6,717.2 914.8,717.2 914.8,783C914.8,814.3,889.7,842.6,855.2,842.6L645.2,842.6C613.8,842.6,585.6,817.5,585.6,783z M2.5,808.1L2.5,720.3 2.5,143.5C2.5,127.8,15,115.3,30.7,115.3L974.3,115.3C990,115.3,1002.5,127.8,1002.5,143.5L1002.5,601.2C1002.5,616.9,990,629.4,974.3,629.4L485.3,629.4 485.3,808.1C485.3,852,450.8,889.6,403.8,889.6L84,889.6C40.1,889.6,2.5,852,2.5,808.1z" />

<glyph unicode="&#xe71b;" glyph-name="learning-path" d="M946.6,685.6L946.6,206C806.5,269.4 656.9,258.2 522.8,181.6 499.8,168.5 546.9,145.3 563.5,154.7 688.6,226.2 823.1,236.3 953.2,167.5 961.6,163 970.7,162.7 977.5,164.9 991.4,165.8 1002.4,177.4 1002.4,191.6L1002.4,685.6C1002.4,700.4,990.4,712.4,975.6,712.4L973.4,712.4C958.6,712.4,946.6,700.4,946.6,685.6z M2.5,690.1L2.5,196.2C2.5,182 13.5,170.4 27.4,169.4 34.3,167.2 43.3,167.5 51.8,172 181.9,240.9 316.4,230.7 441.5,159.2 458,149.7 505.2,173 482.2,186.1 348,262.7 198.4,273.9 58.3,210.6L58.3,690.1C58.3,704.9,46.3,716.9,31.5,716.9L29.3,716.9C14.5,716.9,2.5,704.9,2.5,690.1z M530.2,747.3L526.9,223.5C709,359.2,893.5,262,893.5,262L893.5,831.4C839.7,844.7 793.4,850.1 753.5,850 580.8,849.6 530.2,747.3 530.2,747.3z M111.5,835.9L111.5,266.5C111.5,266.5,285.2,348.9,478.1,227.9L474.1,750.7C474.1,750.7 423.2,851.4 249.4,852.7 246.6,852.7 243.8,852.7 241,852.7 203.6,852.3 160.6,847.3 111.5,835.9z" />

<glyph unicode="&#xe71c;" glyph-name="weblcms" d="M92.9,241.4L238.5,241.4 195.6,2.6 281.7,2.6 324.6,241.4 463.4,241.4 463.4,2.5 549.5,2.5 549.5,241.3 682.2,241.3 725.1,2.5 811.1,2.5 768.2,241.3 912.1,241.3 912.1,315.1 92.9,315.1 92.9,241.4z M585.2,361.1L755.4,361.1 755.4,408 585.2,408 585.2,361.1z M137.7,836.6L137.7,359.8 195.6,359.8 195.6,776 813.8,776 813.8,359.8 867.3,359.8 867.3,836.6 137.7,836.6 137.7,836.6z M456.4,886.7L553,886.7 553,1002.6 456.4,1002.6 456.4,886.7z" />

<glyph unicode="&#xe71d;" glyph-name="portfolio" d="M821.3,282.2C836.9,282.2 849.4,269.7 849.4,254.1 849.4,238.5 836.8,226 821.3,226L193.2,226C177.6,226 165.1,238.5 165.1,254.1 165.1,269.7 177.6,282.2 193.2,282.2L821.3,282.2z M821.3,444.7C836.9,444.7 849.4,432.2 849.4,416.6 849.4,401 836.9,388.5 821.3,388.5L193.2,388.5C177.6,388.5 165.1,401 165.1,416.6 165.1,432.2 177.6,444.7 193.2,444.7L821.3,444.7z M821.3,616.6C836.9,616.6 849.4,604.1 849.4,588.5 849.4,572.9 836.9,560.4 821.3,560.4L193.2,560.4C177.6,560.4 165.1,572.9 165.1,588.5 165.1,604.1 177.6,616.6 193.2,616.6L821.3,616.6z M2.6,672.8L2.6,154C2.6,97.8,49.4,50.9,105.7,50.9L899.4,50.9C955.6,50.9,1002.5,97.8,1002.5,154L1002.5,672.8C1002.5,729,955.6,775.9,899.4,775.9L105.7,775.9C49.5,775.9,2.6,729.1,2.6,672.8z M286.7,901.1C271.1,891.7 261.7,866.7 271.1,848 280.5,829.2 299.2,819.8 318,829.2 377.4,860.5 439.9,876.1 502.4,876.1 564.9,876.1 627.4,860.5 686.8,826.1 705.6,816.7 724.3,822.9 733.7,844.8 743.1,866.6 736.9,888.5 718.1,897.9 649.4,935.4 577.5,954.1 502.5,954.1 427.5,954.1 355.7,935.3 286.7,901.1z" />

<glyph unicode="&#xe71e;" glyph-name="home" d="M127.5,440L127.5,15 421.2,15 421.2,315 577.5,315 577.5,15 874.4,15 874.4,443.1 508.8,727.5 127.5,440z M2.5,583.7L2.5,452.5 508.8,861.9 1002.5,465 1002.5,596.3 508.8,990 2.5,583.7z" />

<glyph unicode="&#xe71f;" glyph-name="repository" d="M811.1,918.2C823.2,918.2,833.1,908.8,833.1,897.1L833.1,108C833.1,96.3,823.2,86.9,811.1,86.9L193.9,86.9C181.7,86.9,171.8,96.3,171.8,108L171.8,630.5 291.9,627.4C432,612.6,439.7,734.3,439.7,734.3L445.6,918.2 811.1,918.2z M361.4,923.5L361.2,923.5 359.2,921.5 358.3,921.5 294.2,856.5 355.4,918.2 356,918.2 127.3,688.3 127.3,687 83.7,643 83.7,108C83.7,49.7,133.1,2.5,193.9,2.5L811,2.5C871.9,2.5,921.3,49.7,921.3,108L921.3,897C921.3,955.3,871.9,1002.5,811,1002.5L439.8,1002.5 361.4,923.5z" />

<glyph unicode="&#xe720;" glyph-name="workspaces" d="M2.5,504.1C2.5,429.1,58.8,369.7,133.8,363.5L136.9,357.2C199.4,194.7,352.5,79.1,533.8,69.7L536.9,69.7 533.8,72.8C518.2,100.9,508.8,135.3,508.8,169.7L508.8,188.4 505.7,188.4C386.9,207.2,286.9,288.4,246.3,397.8L246.3,400.9 249.4,404C274.4,429 290,463.4 290,504 290,585.2 224.4,647.7 146.3,647.7 65,647.8 2.5,582.2 2.5,504.1z M902.5,791.6C893.1,751,871.2,716.6,843.1,691.6L840,688.5C868.1,638.5 886.9,579.1 886.9,516.6 886.9,429.1 852.5,351 799.4,291.6L793.2,285.4 790,285.4C765,301 736.9,310.4 708.8,310.4 627.5,310.4 565,244.8 565,166.6 565,85.4 630.6,22.9 708.8,22.9 790,22.9 852.5,88.5 852.5,166.6L852.5,172.9 852.5,179.2C943.1,260.4 1002.5,379.2 1002.5,513.6 1002.5,616.7 968.1,713.6 905.6,788.6L902.5,794.9 902.5,791.6z M624.4,960.3L618.2,960.3C596.3,963.4 574.4,963.4 552.6,963.4 374.5,963.4 221.3,857.2 149.5,710.3L149.5,707.2 155.7,707.2C193.2,707.2,227.6,694.7,255.7,675.9L261.9,669.6 261.9,672.7C318.2,775.8,427.5,844.6,552.5,844.6L558.7,844.6 558.7,838.3C558.7,757.1 624.3,694.6 702.4,694.6 783.6,694.6 846.1,760.2 846.1,838.3 846.1,919.6 783.6,982.1 705.5,982.1 674.4,982.2 646.3,972.8 624.4,960.3z" />

<glyph unicode="&#xe721;" glyph-name="admin" d="M700.9,497.8C700.9,391.8 613.6,301.4 504.5,301.4 395.4,301.4 308.1,388.7 308.1,497.8 308.1,606.9 395.4,694.2 504.5,694.2 613.6,694.3 700.9,606.9 700.9,497.8z M158.4,856.3L189.6,825.1C251.9,719.1 161.5,585 11.9,622.4 -0.599999999999994,547.6 -0.599999999999994,447.8 11.9,373 174,432.3 264.4,223.5 155.3,133.1 220.8,64.5 258.2,39.6 364.2,20.8 382.9,170.5 626.1,170.5 644.8,20.8 760.1,42.7 838,142.4 838,142.4 838,142.4 794.3,189.2 791.2,214.1 769.5,341.9 863,391.8 984.6,376.3 1009.5,448 1006.4,544.6 987.7,619.5 819.3,563.4 741.4,769.2 844.3,868.9 775.7,937.5 732,959.3 641.6,974.9 629.2,918.7 598,871.9 545,862.6 448.3,843.9 389.1,912.5 361.1,984.2 217.6,937.4 158.4,856.3 158.4,856.3z" />

<glyph unicode="&#xe722;" glyph-name="group" d="M370.2,346.8C326.6,340.5 251.9,415.3 177.1,402.8 -12.8,390.4 2.8,141.3 2.8,141.3L597.5,147.5C591.3,343.7 510.3,406 479.2,406 451.1,406 410.7,353 370.2,346.8z M538.3,421.5C566.3,415.3,619.3,368.6,641,253.4L1002.2,250.3C1002.2,250.3 1014.6,477.6 855.9,486.9 793.6,499.4 728.2,430.9 694,437.1 656.6,443.3 625.5,490 600.6,490 585.1,490 557,471.4 538.3,421.5z M189.6,623.9C189.6,524.3 258.1,446.4 345.3,446.4 432.5,446.4 501,527.3 501,623.9 501,723.5 432.5,801.4 345.3,801.4 258.1,801.4 189.6,720.5 189.6,623.9z M566.4,704.9C566.4,617.7 631.8,546.1 709.6,546.1 787.4,546.1 852.8,617.7 852.8,704.9 852.8,792.1 787.4,863.7 709.6,863.7 631.8,863.7 566.4,792 566.4,704.9z" />

<glyph unicode="&#xe723;" glyph-name="help" d="M539.5,271.4L539.5,182.6 458.1,182.6 458.1,271.4 539.5,271.4z M631.8,777.8C663.8,745.9 679.8,705.2 679.8,655.9 679.8,614 665,578.3 635.5,548.7 618.2,531.4 594.8,508 565.2,478.5 543.1,456.3 532,422.9 532,378.6L465.4,378.6C465.4,432.9 474,473.6 491.3,500.6 503.7,520.3 527.1,547.4 561.6,582 581.3,601.7 591.2,625.1 591.2,652.3 591.2,686.7 582.6,712.6 565.3,729.9 550.5,744.7 529.6,752.1 502.5,752.1 480.3,752.1 461.8,744.7 447.1,729.9 422.4,705.3 410.1,668.3 410.1,619L325,619C325,683 346,736.1 387.9,777.9 417.5,807.5 456.9,822.3 506.2,822.3 560.4,822.3 602.3,807.5 631.8,777.8z M2.5,502.5C2.5,226.8 226.7,2.5 502.5,2.5 778.1,2.5 1002.5,226.8 1002.5,502.5 1002.5,778.2 778.1,1002.5 502.5,1002.5 226.7,1002.5 2.5,778.2 2.5,502.5z" />

<glyph unicode="&#xe724;" glyph-name="menu" d="M19.7,2.5L985.3,2.5 985.3,265 19.7,265 19.7,2.5z M19.7,371.2L985.3,371.2 985.3,633.7 19.7,633.7 19.7,371.2z M19.7,740L985.3,740 985.3,1002.5 19.7,1002.5 19.7,740z" />

<glyph unicode="&#xe725;" glyph-name="lynx" d="M334.1,214.1L675.4,214.1 675.4,273.3 334.1,273.3 334.1,214.1z M435.9,460.1L351,460.1 425,383.5 499.1,306.9 573.1,383.5 647.1,460.1 559.6,460.1 559.6,582.5 435.9,582.5 435.9,460.1z M928.7,656.3L928.7,194.8C928.7,173.6,911.4,156.3,890.2,156.3L697.9,156.3 121,156.3C99.8,156.3,82.5,173.6,82.5,194.8L82.5,656.3 928.7,656.3z M904.1,813.3C919.4,813.3,931.7,800.9,931.7,785.6L931.7,758C931.7,742.6,919.4,730.3,904.1,730.3L876.4,730.3C861.1,730.3,848.7,742.7,848.7,758L848.7,785.6C848.7,800.9,861.1,813.3,876.4,813.3L904.1,813.3z M788.6,813.3C804,813.3,816.3,800.9,816.3,785.6L816.3,758C816.3,742.6,803.9,730.3,788.6,730.3L761,730.3C745.7,730.3,733.4,742.7,733.4,758L733.4,785.6C733.4,800.9,745.7,813.3,761,813.3L788.6,813.3z M2.5,79.5L1002.5,79.5 1002.5,925.6 2.5,925.6 2.5,79.5z" />

<glyph unicode="&#xe726;" glyph-name="metadata" d="M449.4,627.5C421.3,611.9,390,586.9,358.8,549.4L346.3,536.9 393.2,502.5 405.7,511.9C440.1,546.3 452.6,555.6 458.8,555.6 411.9,396.2 386.9,299.4 386.9,258.7 386.9,243.1 393.1,227.4 402.5,218.1 411.9,208.7 424.4,202.5 440,202.5 455.6,202.5 474.4,208.7 496.3,221.2 515,233.7 549.4,261.8 593.2,302.4L605.7,314.9 565,355.6 552.5,346.2C511.9,308.7 493.1,296.2 490,293.1 490,308.7 499.4,358.7 540,490 571.3,596.3 571.3,605.6 571.3,611.9 571.3,624.4 568.2,636.9 558.8,643.2 549.4,649.4 536.9,652.6 524.4,652.6 502.5,652.5 477.5,643.1 449.4,627.5z M458.8,765C458.8,727.5 486.9,699.4 524.4,699.4 561.9,699.4 590,727.5 590,765 590,802.5 561.9,830.6 524.4,830.6 486.9,830.6 458.8,799.4 458.8,765z M905.6,502.5C905.6,280.6 724.4,99.4 502.5,99.4 280.6,99.4 99.4,280.7 99.4,502.5 99.4,724.3 280.6,905.6 502.5,905.6 724.4,905.6 905.6,724.4 905.6,502.5z M2.5,502.5C2.5,227.5 227.5,2.5 502.5,2.5 777.5,2.5 1002.5,227.5 1002.5,502.5 1002.5,777.5 777.5,1002.5 502.5,1002.5 227.5,1002.5 2.5,777.5 2.5,502.5z" />

<glyph unicode="&#xe727;" glyph-name="cas-storage" d="M726.9,332.9L730,313 736,273.3 738.3,257.7C740.8,241,729.3,225.4,712.6,222.9L228.4,149.7C211.7,147.2,196.1,158.7,193.6,175.4L191.2,191 185.2,230.6 182.2,250.6C169.6,334.2,227.1,412.2,310.7,424.8L337.6,428.9C367.1,414 401.2,407.6 436.3,412.9 471.4,418.2 502.1,434.4 525.9,457.3L552.8,461.4C560.6,462.5 568.4,463.1 576.1,463.1 650.4,463 715.6,408.6 726.9,332.9z M544.1,595.4C555.1,522.3 504.8,454.1 431.8,443.1 358.6,432 290.5,482.3 279.4,555.4 268.4,628.5 318.6,696.7 391.7,707.7 398.6,708.7 405.3,709.2 412.1,709.2 477.1,709.1 534,661.6 544.1,595.4z M669.9,938L144.3,858.6 93.3,850.9 57.8,845.6C22.3,840.3,-2.10000000000004,807.2,3.19999999999995,771.6L105.1,98.3C110.5,62.8,143.6,38.4,179.2,43.7L214.7,49.1 265.7,56.8 791.2,136.3C826.7,141.7,851.1,174.8,845.8,210.3L743.9,883.6C739,915.8 711.3,938.9 679.8,938.9 676.5,939 673.2,938.7 669.9,938z M749.9,950.3L707,943.8C742.5,949.2,775.7,924.7,781,889.2L882.9,216C888.3,180.6,863.8,147.4,828.3,142L871.2,148.5C906.7,153.9,931.2,187,925.8,222.6L824,895.8C819.1,927.9 791.4,951 759.8,951.1 756.5,951.1 753.2,950.8 749.9,950.3z M825.9,961.8L783,955.3C818.6,960.7,851.7,936.2,857.1,900.7L958.8,227.5C964.2,192,939.7,158.9,904.2,153.5L947.1,160C982.6,165.3,1007.1,198.4,1001.7,234L900,907.2C895,939.4 867.4,962.5 835.8,962.6 832.6,962.6 829.3,962.3 825.9,961.8z" />

<glyph unicode="&#xe728;" glyph-name="cache" d="M483.9,467.9L483.9,343.9C483.9,334.8,491.3,327.5,500.3,327.5L606.1,327.5C615.2,327.5 622.5,334.8 622.5,343.9 622.5,353 615.2,360.3 606.1,360.3L516.7,360.3 516.7,467.9C516.7,477 509.4,484.3 500.3,484.3 491.3,484.3 484,476.9 483.9,467.9z M659.1,354.2C659.1,267.8 588.8,197.5 502.4,197.5 416,197.5 345.7,267.8 345.7,354.2 345.7,440.6 416,510.9 502.4,510.9 588.9,510.9 659.2,440.6 659.1,354.2z M303.4,354.2C303.4,244.5 392.6,155.2 502.4,155.2 612.2,155.2 701.5,244.4 701.5,354.2 701.5,464 612.2,553.3 502.4,553.3 392.7,553.3 303.4,463.9 303.4,354.2z M735.2,354.3C735.2,225.8 630.7,121.3 502.4,121.3 373.9,121.3 269.6,225.8 269.6,354.3 269.6,482.6 374,587.1 502.4,587.1 630.8,587.1 735.3,482.6 735.2,354.3z M2.5,788.9L2.5,108.8C2.5,75.9,29.5,48.7,62.4,48.7L942.5,48.7C975.5,48.7,1002.5,75.8,1002.5,108.8L1002.5,608.8C1002.5,641.9,975.5,668.9,942.5,668.9L437.4,668.9C404.5,668.9,377.5,695.9,377.5,728.8L377.5,788.9C377.5,821.8,350.5,848.8,317.6,848.8L62.4,848.8C29.4,848.8,2.5,821.8,2.5,788.9z M452.4,703.8L957.4,703.8 997.4,836.3 572.5,956.3 452.4,703.8z" />

<glyph unicode="&#xe729;" glyph-name="tracking" d="M39,230.1L39,60.6C39,28.6,64.8,2.6,96.9,2.6L908.1,2.6C940,2.6,966,28.6,966,60.6L966,230.1C966,262,940,288,908.1,288L96.9,288C64.8,288,39,262.1,39,230.1z M39,590.6L39,421.1C39,389.1,64.9,363.1,96.9,363.1L908.1,363.1C940,363.1,966,389.1,966,421.1L966,590.6C966,622.6,940,648.5,908.1,648.5L96.9,648.5C64.9,648.5,39,622.6,39,590.6z M275.4,860C275.4,823.7 245.9,794.2 209.6,794.2 173.4,794.2 143.9,823.7 143.9,860 143.9,896.3 173.4,925.8 209.6,925.8 245.8,925.8 275.3,896.3 275.4,860z M39,944.6L39,775.1C39,743.2,64.8,717.2,96.9,717.2L908.1,717.2C940,717.2,966,743.2,966,775.1L966,944.6C966,976.7,940,1002.6,908.1,1002.6L96.9,1002.6C64.9,1002.6,39,976.7,39,944.6z" />

<glyph unicode="&#xe72a;" glyph-name="install" d="M35.2,472.9C35.2,214.3 243.9,5.6 502.5,2.5 761.1,2.5 969.8,211.2 969.8,469.8 969.8,659.8 854.5,825 692.5,896.6L692.5,725.2C770.4,666 820.2,575.7 820.2,469.7 820.2,295.3 680,152 502.5,152 328,152 184.8,292.2 184.8,469.8 184.8,575.7 234.6,666.1 312.5,725.3L312.5,896.6C150.5,824.9,35.2,659.8,35.2,472.9z M399.7,370.1L599.1,370.1 599.1,1002.5 399.7,1002.5 399.7,370.1z" />

</font>
</defs>
</svg>
