<?xml version="1.0" encoding="UTF-8" standalone="no"?>
<svg
   xmlns:dc="http://purl.org/dc/elements/1.1/"
   xmlns:cc="http://creativecommons.org/ns#"
   xmlns:rdf="http://www.w3.org/1999/02/22-rdf-syntax-ns#"
   xmlns:svg="http://www.w3.org/2000/svg"
   xmlns="http://www.w3.org/2000/svg"
   xmlns:sodipodi="http://sodipodi.sourceforge.net/DTD/sodipodi-0.dtd"
   xmlns:inkscape="http://www.inkscape.org/namespaces/inkscape"
   viewBox="-32 0 512 512"
   version="1.1"
   id="svg22"
   sodipodi:docname="008-bell.svg"
   inkscape:export-filename="D:\Downloads\1069808-notification\svg\22.png"
   inkscape:export-xdpi="4.1300001"
   inkscape:export-ydpi="4.1300001"
   inkscape:version="0.92.1 r15371">
  <metadata
     id="metadata28">
    <rdf:RDF>
      <cc:Work
         rdf:about="">
        <dc:format>image/svg+xml</dc:format>
        <dc:type
           rdf:resource="http://purl.org/dc/dcmitype/StillImage" />
      </cc:Work>
    </rdf:RDF>
  </metadata>
  <defs
     id="defs26" />
  <sodipodi:namedview
     pagecolor="#ffffff"
     bordercolor="#666666"
     borderopacity="1"
     objecttolerance="10"
     gridtolerance="10"
     guidetolerance="10"
     inkscape:pageopacity="0"
     inkscape:pageshadow="2"
     inkscape:window-width="1414"
     inkscape:window-height="989"
     id="namedview24"
     showgrid="false"
     inkscape:zoom="0.921875"
     inkscape:cx="291.69423"
     inkscape:cy="238.67824"
     inkscape:window-x="2544"
     inkscape:window-y="198"
     inkscape:window-maximized="0"
     inkscape:current-layer="svg22" />
  <path
     d="m224 400c-30.878906 0-56 25.121094-56 56s25.121094 56 56 56 56-25.121094 56-56-25.121094-56-56-56zm0 0"
     fill="#f5af50"
     id="path2"
     style="fill:#e9b41a;fill-opacity:1" />
  <path
     d="m 184,60.610174 c 0,-22.089844 17.91016,-40.000002 40,-40.000002 22.08984,0 40,17.910158 40,40.000002 0,22.089844 -17.91016,39.999996 -40,39.999996 -22.08984,0 -40,-17.910152 -40,-39.999996 z m 40,16 c 8.83594,0 16,-7.164062 16,-16 0,-8.835938 -7.16406,-16 -16,-16 -8.83594,0 -16,7.164062 -16,16 0,8.835938 7.16406,16 16,16 z m 0,0"
     id="path6"
     inkscape:connector-curvature="0"
     style="fill:#406e8e;fill-opacity:1" />
  <path
     d="m419.011719 392.589844c-.1875-.078125-18.875-7.992188-37.320313-33.359375-17.195312-23.640625-37.691406-67.683594-37.691406-143.230469 0-49.203125-13.617188-87.148438-40.476562-112.785156-28.453126-27.160156-62.035157-31.214844-79.523438-31.214844s-51.070312 4.054688-79.523438 31.214844c-26.859374 25.636718-40.476562 63.582031-40.476562 112.785156 0 75.546875-20.496094 119.589844-37.6875 143.230469-18.449219 25.367187-37.136719 33.28125-37.285156 33.339843-3.558594 1.425782-5.609375 5.175782-4.882813 8.941407.726563 3.765625 4.019531 6.488281 7.855469 6.488281h384c3.816406 0 7.085938-2.707031 7.828125-6.453125s-1.289063-7.503906-4.816406-8.957031zm0 0"
     fill="#f4dc50"
     id="path8"
     style="fill:#406e8e;fill-opacity:1" />
  <path
     d="m424 384h-400c-13.234375 0-24 10.765625-24 24v24c0 13.234375 10.765625 24 24 24h400c13.234375 0 24-10.765625 24-24v-24c0-13.234375-10.765625-24-24-24zm0 0"
     fill="#f6e477"
     id="path12"
     style="fill:#518ab1;fill-opacity:1" />
  <g
     inkscape:groupmode="layer"
     id="layer1"
     inkscape:label="Bell" />
  <g
     inkscape:groupmode="layer"
     id="layer2"
     inkscape:label="Notification"
     style="display:none">
    <path
       style="fill:#fb675f"
       d="m 336,72 c -39.69922,0 -72,32.30078 -72,72 0,39.69922 32.30078,72 72,72 39.69922,0 72,-32.30078 72,-72 0,-39.69922 -32.30078,-72 -72,-72 z m 0,0"
       id="path16"
       inkscape:connector-curvature="0" />
    <path
       style="fill:#f4f5f7"
       d="m 336,176 c -4.41797,0 -8,-3.58203 -8,-8 v -28.6875 l -2.34375,2.34375 c -3.125,3.125 -8.1875,3.125 -11.3125,0 -3.125,-3.125 -3.125,-8.1875 0,-11.3125 l 16,-16 c 2.28906,-2.28906 5.72656,-2.97656 8.71875,-1.73437 C 342.05078,113.84766 344,116.76563 344,120 v 48 c 0,4.41797 -3.58203,8 -8,8 z m 0,0"
       id="path20"
       inkscape:connector-curvature="0" />
    <path
       style=""
       d="m360 200c-39.699219 0-72-32.300781-72-72 0-19.757812 8.003906-37.679688 20.933594-50.703125-26.324219 10.722656-44.933594 36.574219-44.933594 66.703125 0 39.699219 32.300781 72 72 72 19.941406 0 38.015625-8.152344 51.066406-21.296875-8.363281 3.402344-17.496094 5.296875-27.066406 5.296875zm0 0"
       fill="#fa544b"
       id="path18" />
  </g>
</svg>
