<?xml version="1.0" encoding="UTF-8" standalone="no"?>
<svg
   xmlns:dc="http://purl.org/dc/elements/1.1/"
   xmlns:cc="http://creativecommons.org/ns#"
   xmlns:rdf="http://www.w3.org/1999/02/22-rdf-syntax-ns#"
   xmlns:svg="http://www.w3.org/2000/svg"
   xmlns="http://www.w3.org/2000/svg"
   xmlns:sodipodi="http://sodipodi.sourceforge.net/DTD/sodipodi-0.dtd"
   xmlns:inkscape="http://www.inkscape.org/namespaces/inkscape"
   viewBox="-32 0 512 512"
   version="1.1"
   id="svg22"
   sodipodi:docname="008-bell-grey.svg"
   inkscape:export-filename="D:\Downloads\1069808-notification\svg\48Na.png"
   inkscape:export-xdpi="9"
   inkscape:export-ydpi="9"
   inkscape:version="0.92.1 r15371">
  <metadata
     id="metadata28">
    <rdf:RDF>
      <cc:Work
         rdf:about="">
        <dc:format>image/svg+xml</dc:format>
        <dc:type
           rdf:resource="http://purl.org/dc/dcmitype/StillImage" />
        <dc:title></dc:title>
      </cc:Work>
    </rdf:RDF>
  </metadata>
  <defs
     id="defs26" />
  <sodipodi:namedview
     pagecolor="#ffffff"
     bordercolor="#666666"
     borderopacity="1"
     objecttolerance="10"
     gridtolerance="10"
     guidetolerance="10"
     inkscape:pageopacity="0"
     inkscape:pageshadow="2"
     inkscape:window-width="1414"
     inkscape:window-height="989"
     id="namedview24"
     showgrid="false"
     inkscape:zoom="0.921875"
     inkscape:cx="109.45694"
     inkscape:cy="238.67824"
     inkscape:window-x="2544"
     inkscape:window-y="198"
     inkscape:window-maximized="0"
     inkscape:current-layer="svg22" />
  <path
     style="fill:#808080;fill-opacity:1;opacity:0.5"
     d="M 256 20.609375 C 233.91016 20.609375 216 38.519531 216 60.609375 C 216 66.686802 217.36366 72.444768 219.78906 77.603516 C 205.80152 82.042722 190.51624 89.813159 176.47656 103.21484 C 149.61719 128.85156 136 166.79688 136 216 C 136 291.54687 115.50391 335.58984 98.3125 359.23047 C 89.857569 370.85578 81.374672 378.782 74.626953 384 L 56 384 C 42.765625 384 32 394.76562 32 408 L 32 432 C 32 445.23437 42.765625 456 56 456 L 200 456 C 200 486.87891 225.12109 512 256 512 C 286.87891 512 312 486.87891 312 456 L 456 456 C 469.23437 456 480 445.23437 480 432 L 480 408 C 480 394.76562 469.23437 384 456 384 L 437.375 384 C 430.62452 378.78008 422.14332 370.85409 413.69141 359.23047 C 396.49609 335.58984 376 291.54687 376 216 C 376 166.79688 362.38281 128.85156 335.52344 103.21484 C 321.48376 89.813159 306.19848 82.042722 292.21094 77.603516 C 294.63634 72.444768 296 66.686802 296 60.609375 C 296 38.519531 278.08984 20.609375 256 20.609375 z M 256 44.609375 C 264.83594 44.609375 272 51.773437 272 60.609375 C 272 65.333554 269.93998 69.567141 266.68359 72.496094 C 262.70491 72.137686 259.09058 72 256 72 C 252.90942 72 249.29509 72.137686 245.31641 72.496094 C 242.06002 69.567141 240 65.333554 240 60.609375 C 240 51.773437 247.16406 44.609375 256 44.609375 z "
     transform="translate(-32)"
     id="path2" />
  <g
     inkscape:groupmode="layer"
     id="layer1"
     inkscape:label="Bell" />
  <g
     inkscape:groupmode="layer"
     id="layer2"
     inkscape:label="Notification"
     style="display:none">
    <path
       style="fill:#fb675f"
       d="m 336,72 c -39.69922,0 -72,32.30078 -72,72 0,39.69922 32.30078,72 72,72 39.69922,0 72,-32.30078 72,-72 0,-39.69922 -32.30078,-72 -72,-72 z m 0,0"
       id="path16"
       inkscape:connector-curvature="0" />
    <path
       style="fill:#f4f5f7"
       d="m 336,176 c -4.41797,0 -8,-3.58203 -8,-8 v -28.6875 l -2.34375,2.34375 c -3.125,3.125 -8.1875,3.125 -11.3125,0 -3.125,-3.125 -3.125,-8.1875 0,-11.3125 l 16,-16 c 2.28906,-2.28906 5.72656,-2.97656 8.71875,-1.73437 C 342.05078,113.84766 344,116.76563 344,120 v 48 c 0,4.41797 -3.58203,8 -8,8 z m 0,0"
       id="path20"
       inkscape:connector-curvature="0" />
    <path
       style=""
       d="m360 200c-39.699219 0-72-32.300781-72-72 0-19.757812 8.003906-37.679688 20.933594-50.703125-26.324219 10.722656-44.933594 36.574219-44.933594 66.703125 0 39.699219 32.300781 72 72 72 19.941406 0 38.015625-8.152344 51.066406-21.296875-8.363281 3.402344-17.496094 5.296875-27.066406 5.296875zm0 0"
       fill="#fa544b"
       id="path18" />
  </g>
</svg>
