<?xml version="1.0" encoding="UTF-8" standalone="no"?>
<svg
   xmlns:dc="http://purl.org/dc/elements/1.1/"
   xmlns:cc="http://creativecommons.org/ns#"
   xmlns:rdf="http://www.w3.org/1999/02/22-rdf-syntax-ns#"
   xmlns:svg="http://www.w3.org/2000/svg"
   xmlns="http://www.w3.org/2000/svg"
   xmlns:sodipodi="http://sodipodi.sourceforge.net/DTD/sodipodi-0.dtd"
   xmlns:inkscape="http://www.inkscape.org/namespaces/inkscape"
   viewBox="-32 0 1000 1000"
   version="1.1"
   id="svg22"
   sodipodi:docname="menu.svg"
   inkscape:export-filename="D:\Downloads\Menu.png"
   inkscape:export-xdpi="6.4000001"
   inkscape:export-ydpi="6.4000001"
   inkscape:version="0.92.1 r15371"
   width="1000"
   height="1000">
  <metadata
     id="metadata28">
    <rdf:RDF>
      <cc:Work
         rdf:about="">
        <dc:format>image/svg+xml</dc:format>
        <dc:type
           rdf:resource="http://purl.org/dc/dcmitype/StillImage" />
        <dc:title></dc:title>
      </cc:Work>
    </rdf:RDF>
  </metadata>
  <defs
     id="defs26" />
  <sodipodi:namedview
     pagecolor="#ffffff"
     bordercolor="#666666"
     borderopacity="1"
     objecttolerance="10"
     gridtolerance="10"
     guidetolerance="10"
     inkscape:pageopacity="0"
     inkscape:pageshadow="2"
     inkscape:window-width="1414"
     inkscape:window-height="989"
     id="namedview24"
     showgrid="false"
     inkscape:zoom="0.32593203"
     inkscape:cx="-333.077"
     inkscape:cy="8.6861829"
     inkscape:window-x="2735"
     inkscape:window-y="397"
     inkscape:window-maximized="0"
     inkscape:current-layer="svg22"
     inkscape:pagecheckerboard="true" />
  <g
     id="g4494"
     transform="translate(125,-4.305085)">
    <path
       inkscape:connector-curvature="0"
       style="fill:#ffffff;fill-opacity:1"
       id="path2"
       d="m 343,638 c -30.87891,0 -56,25.12109 -56,56 0,30.87891 25.12109,56 56,56 30.87891,0 56,-25.12109 56,-56 0,-30.87891 -25.12109,-56 -56,-56 z m 0,0" />
    <path
       style="fill:#ffffff;fill-opacity:1"
       inkscape:connector-curvature="0"
       id="path6"
       d="m 303,298.61017 c 0,-22.08984 17.91016,-40 40,-40 22.08984,0 40,17.91016 40,40 0,22.08985 -17.91016,40 -40,40 -22.08984,0 -40,-17.91015 -40,-40 z m 40,16 c 8.83594,0 16,-7.16406 16,-16 0,-8.83593 -7.16406,-16 -16,-16 -8.83594,0 -16,7.16407 -16,16 0,8.83594 7.16406,16 16,16 z m 0,0" />
    <path
       inkscape:connector-curvature="0"
       style="fill:#ffffff;fill-opacity:1"
       id="path8"
       d="m 538.02207,630.58984 c -0.1875,-0.0781 -18.875,-7.99218 -37.32031,-33.35937 C 483.50644,573.58984 463.01035,529.54687 463.01035,454 c 0,-49.20312 -13.61719,-87.14844 -40.47656,-112.78516 C 394.08066,314.05469 360.49863,310 343.01035,310 c -17.48828,0 -51.07031,4.05469 -79.52344,31.21484 -26.85937,25.63672 -40.47656,63.58204 -40.47656,112.78516 0,75.54687 -20.49609,119.58984 -37.6875,143.23047 -18.44922,25.36719 -37.13672,33.28125 -37.28515,33.33984 -3.5586,1.42578 -5.60938,5.17578 -4.88282,8.94141 0.72657,3.76562 4.01954,6.48828 7.85547,6.48828 h 384 c 3.81641,0 7.08594,-2.70703 7.82812,-6.45312 0.74219,-3.7461 -1.28906,-7.50391 -4.8164,-8.95704 z m 0,0" />
    <path
       inkscape:connector-curvature="0"
       style="fill:#ffffff;fill-opacity:1"
       id="path12"
       d="M 543,622 H 143 c -13.23438,0 -24,10.76562 -24,24 v 24 c 0,13.23437 10.76562,24 24,24 h 400 c 13.23437,0 24,-10.76563 24,-24 v -24 c 0,-13.23438 -10.76563,-24 -24,-24 z m 0,0" />
  </g>
  <g
     inkscape:groupmode="layer"
     id="layer1"
     inkscape:label="Bell"
     transform="translate(0,488)" />
  <g
     inkscape:groupmode="layer"
     id="layer2"
     inkscape:label="Notification"
     style="display:none"
     transform="translate(0,488)">
    <path
       style="fill:#fb675f"
       d="m 336,72 c -39.69922,0 -72,32.30078 -72,72 0,39.69922 32.30078,72 72,72 39.69922,0 72,-32.30078 72,-72 0,-39.69922 -32.30078,-72 -72,-72 z m 0,0"
       id="path16"
       inkscape:connector-curvature="0" />
    <path
       style="fill:#f4f5f7"
       d="m 336,176 c -4.41797,0 -8,-3.58203 -8,-8 v -28.6875 l -2.34375,2.34375 c -3.125,3.125 -8.1875,3.125 -11.3125,0 -3.125,-3.125 -3.125,-8.1875 0,-11.3125 l 16,-16 c 2.28906,-2.28906 5.72656,-2.97656 8.71875,-1.73437 C 342.05078,113.84766 344,116.76563 344,120 v 48 c 0,4.41797 -3.58203,8 -8,8 z m 0,0"
       id="path20"
       inkscape:connector-curvature="0" />
    <path
       style="fill:#fa544b"
       d="m 360,200 c -39.69922,0 -72,-32.30078 -72,-72 0,-19.75781 8.00391,-37.679688 20.93359,-50.703125 C 282.60937,88.019531 264,113.87109 264,144 c 0,39.69922 32.30078,72 72,72 19.94141,0 38.01562,-8.15234 51.06641,-21.29688 C 378.70312,198.10547 369.57031,200 360,200 Z m 0,0"
       id="path18"
       inkscape:connector-curvature="0" />
  </g>
</svg>
